<mxfile host="app.diagrams.net" modified="2023-11-03T05:48:53.712Z" agent="Mozilla/5.0 (Windows NT 10.0; Win64; x64) AppleWebKit/537.36 (KHTML, like Gecko) Chrome/119.0.0.0 Safari/537.36" etag="fxvckL_EcM-XuYPsQCLs" version="22.0.8" type="device">
  <diagram name="페이지-1" id="ZcUvNI0uOEUHETr2wtrr">
    <mxGraphModel dx="4412" dy="3124" grid="1" gridSize="10" guides="1" tooltips="1" connect="1" arrows="1" fold="1" page="1" pageScale="1" pageWidth="827" pageHeight="1169" math="0" shadow="0">
      <root>
        <mxCell id="0" />
        <mxCell id="1" parent="0" />
        <mxCell id="p6u7-twGRa0xvnqgj49X-8" value="Car(modi)" style="swimlane;rounded=1;" vertex="1" parent="1">
          <mxGeometry x="-689" y="-120" width="650" height="380" as="geometry" />
        </mxCell>
        <mxCell id="p6u7-twGRa0xvnqgj49X-2" value="__init__" style="rounded=1;whiteSpace=wrap;html=1;" vertex="1" parent="p6u7-twGRa0xvnqgj49X-8">
          <mxGeometry x="20" y="40" width="150" height="50" as="geometry" />
        </mxCell>
        <mxCell id="p6u7-twGRa0xvnqgj49X-11" value="stop" style="rounded=1;whiteSpace=wrap;html=1;" vertex="1" parent="p6u7-twGRa0xvnqgj49X-8">
          <mxGeometry x="451" y="30" width="150" height="50" as="geometry" />
        </mxCell>
        <mxCell id="p6u7-twGRa0xvnqgj49X-12" value="test_ir" style="rounded=1;whiteSpace=wrap;html=1;" vertex="1" parent="p6u7-twGRa0xvnqgj49X-8">
          <mxGeometry x="20" y="125" width="150" height="50" as="geometry" />
        </mxCell>
        <mxCell id="p6u7-twGRa0xvnqgj49X-48" value="" style="group;rounded=1;" vertex="1" connectable="0" parent="p6u7-twGRa0xvnqgj49X-8">
          <mxGeometry x="429" y="90" width="201" height="244" as="geometry" />
        </mxCell>
        <mxCell id="p6u7-twGRa0xvnqgj49X-23" value="__right" style="rounded=1;whiteSpace=wrap;html=1;" vertex="1" parent="p6u7-twGRa0xvnqgj49X-48">
          <mxGeometry x="23" y="125" width="150" height="50" as="geometry" />
        </mxCell>
        <mxCell id="p6u7-twGRa0xvnqgj49X-24" value="__left" style="rounded=1;whiteSpace=wrap;html=1;" vertex="1" parent="p6u7-twGRa0xvnqgj49X-48">
          <mxGeometry x="23" y="185" width="150" height="50" as="geometry" />
        </mxCell>
        <mxCell id="p6u7-twGRa0xvnqgj49X-44" value="" style="swimlane;whiteSpace=wrap;html=1;dashed=1;startSize=40;swimlaneLine=1;rounded=1;" vertex="1" parent="p6u7-twGRa0xvnqgj49X-48">
          <mxGeometry width="201" height="244" as="geometry" />
        </mxCell>
        <mxCell id="p6u7-twGRa0xvnqgj49X-47" value="exec" style="rounded=1;whiteSpace=wrap;html=1;swimlaneLine=1;fontStyle=1" vertex="1" parent="p6u7-twGRa0xvnqgj49X-44">
          <mxGeometry x="48" y="4" width="110" height="34" as="geometry" />
        </mxCell>
        <mxCell id="p6u7-twGRa0xvnqgj49X-71" value="untilll_cross" style="whiteSpace=wrap;html=1;rounded=1;" vertex="1" parent="p6u7-twGRa0xvnqgj49X-44">
          <mxGeometry x="-160" y="5.5" width="100" height="40" as="geometry" />
        </mxCell>
        <mxCell id="p6u7-twGRa0xvnqgj49X-73" value="__straight" style="whiteSpace=wrap;html=1;rounded=1;" vertex="1" parent="p6u7-twGRa0xvnqgj49X-44">
          <mxGeometry x="20" y="70" width="150" height="44.5" as="geometry" />
        </mxCell>
        <mxCell id="p6u7-twGRa0xvnqgj49X-74" value="" style="edgeStyle=elbowEdgeStyle;elbow=vertical;html=1;rounded=1;curved=0;sourcePerimeterSpacing=0;targetPerimeterSpacing=0;startSize=6;endSize=6;" edge="1" parent="p6u7-twGRa0xvnqgj49X-44" source="p6u7-twGRa0xvnqgj49X-73" target="p6u7-twGRa0xvnqgj49X-71">
          <mxGeometry relative="1" as="geometry" />
        </mxCell>
        <mxCell id="p6u7-twGRa0xvnqgj49X-78" style="edgeStyle=orthogonalEdgeStyle;rounded=0;orthogonalLoop=1;jettySize=auto;html=1;exitX=1;exitY=0.5;exitDx=0;exitDy=0;entryX=1;entryY=0.5;entryDx=0;entryDy=0;" edge="1" parent="p6u7-twGRa0xvnqgj49X-44" source="p6u7-twGRa0xvnqgj49X-47" target="p6u7-twGRa0xvnqgj49X-73">
          <mxGeometry relative="1" as="geometry">
            <mxPoint x="178" y="41" as="sourcePoint" />
            <mxPoint x="193" y="230" as="targetPoint" />
          </mxGeometry>
        </mxCell>
        <mxCell id="p6u7-twGRa0xvnqgj49X-76" style="edgeStyle=orthogonalEdgeStyle;rounded=0;orthogonalLoop=1;jettySize=auto;html=1;exitX=1;exitY=0.5;exitDx=0;exitDy=0;entryX=1;entryY=0.5;entryDx=0;entryDy=0;" edge="1" parent="p6u7-twGRa0xvnqgj49X-48" source="p6u7-twGRa0xvnqgj49X-47" target="p6u7-twGRa0xvnqgj49X-24">
          <mxGeometry relative="1" as="geometry" />
        </mxCell>
        <mxCell id="p6u7-twGRa0xvnqgj49X-77" style="edgeStyle=orthogonalEdgeStyle;rounded=0;orthogonalLoop=1;jettySize=auto;html=1;exitX=1;exitY=0.5;exitDx=0;exitDy=0;entryX=1;entryY=0.5;entryDx=0;entryDy=0;" edge="1" parent="p6u7-twGRa0xvnqgj49X-48" source="p6u7-twGRa0xvnqgj49X-47" target="p6u7-twGRa0xvnqgj49X-23">
          <mxGeometry relative="1" as="geometry">
            <mxPoint x="168" y="31" as="sourcePoint" />
            <mxPoint x="183" y="220" as="targetPoint" />
          </mxGeometry>
        </mxCell>
        <mxCell id="p6u7-twGRa0xvnqgj49X-27" value="- IR_THRESHOLD_LEFT&lt;br style=&quot;border-color: var(--border-color);&quot;&gt;&lt;span style=&quot;&quot;&gt;- IR_THRESHOLD_RIGHT&lt;/span&gt;" style="rounded=0;whiteSpace=wrap;html=1;dashed=1;align=left;" vertex="1" parent="1">
          <mxGeometry x="-559" y="-190" width="150" height="60" as="geometry" />
        </mxCell>
        <mxCell id="p6u7-twGRa0xvnqgj49X-28" style="edgeStyle=orthogonalEdgeStyle;rounded=0;orthogonalLoop=1;jettySize=auto;html=1;entryX=0.5;entryY=0;entryDx=0;entryDy=0;dashed=1;strokeColor=default;curved=1;" edge="1" parent="1" source="p6u7-twGRa0xvnqgj49X-27" target="p6u7-twGRa0xvnqgj49X-71">
          <mxGeometry relative="1" as="geometry">
            <mxPoint x="-384" y="43.00000000000023" as="targetPoint" />
          </mxGeometry>
        </mxCell>
        <mxCell id="p6u7-twGRa0xvnqgj49X-29" style="edgeStyle=orthogonalEdgeStyle;rounded=0;orthogonalLoop=1;jettySize=auto;html=1;entryX=1;entryY=0.5;entryDx=0;entryDy=0;dashed=1;curved=1;" edge="1" parent="1" source="p6u7-twGRa0xvnqgj49X-27" target="p6u7-twGRa0xvnqgj49X-12">
          <mxGeometry relative="1" as="geometry" />
        </mxCell>
        <mxCell id="p6u7-twGRa0xvnqgj49X-49" value="__init__.py" style="swimlane;whiteSpace=wrap;html=1;rounded=1;" vertex="1" parent="1">
          <mxGeometry x="-740" y="-240" width="780" height="540" as="geometry" />
        </mxCell>
        <mxCell id="p6u7-twGRa0xvnqgj49X-72" value="after_cross" style="whiteSpace=wrap;html=1;rounded=1;" vertex="1" parent="p6u7-twGRa0xvnqgj49X-49">
          <mxGeometry x="320" y="295" width="100" height="40" as="geometry" />
        </mxCell>
        <mxCell id="p6u7-twGRa0xvnqgj49X-50" value="main.py" style="swimlane;whiteSpace=wrap;html=1;rounded=1;" vertex="1" parent="1">
          <mxGeometry x="80" y="-240" width="540" height="380" as="geometry" />
        </mxCell>
        <mxCell id="p6u7-twGRa0xvnqgj49X-51" value="if __name__ == &quot;__main__&quot;" style="swimlane;whiteSpace=wrap;html=1;rounded=1;" vertex="1" parent="p6u7-twGRa0xvnqgj49X-50">
          <mxGeometry x="160" y="100" width="310" height="199" as="geometry" />
        </mxCell>
        <mxCell id="p6u7-twGRa0xvnqgj49X-53" value="car" style="rounded=0;whiteSpace=wrap;html=1;" vertex="1" parent="p6u7-twGRa0xvnqgj49X-51">
          <mxGeometry x="90" y="39" width="120" height="60" as="geometry" />
        </mxCell>
        <mxCell id="p6u7-twGRa0xvnqgj49X-84" style="edgeStyle=orthogonalEdgeStyle;rounded=0;orthogonalLoop=1;jettySize=auto;html=1;entryX=1;entryY=0.5;entryDx=0;entryDy=0;dashed=1;curved=1;" edge="1" parent="p6u7-twGRa0xvnqgj49X-51" source="p6u7-twGRa0xvnqgj49X-55" target="p6u7-twGRa0xvnqgj49X-53">
          <mxGeometry relative="1" as="geometry" />
        </mxCell>
        <mxCell id="p6u7-twGRa0xvnqgj49X-55" value="instructions" style="rounded=0;whiteSpace=wrap;html=1;" vertex="1" parent="p6u7-twGRa0xvnqgj49X-51">
          <mxGeometry x="110" y="140" width="90" height="41" as="geometry" />
        </mxCell>
        <mxCell id="p6u7-twGRa0xvnqgj49X-82" value="instruction" style="rounded=0;whiteSpace=wrap;html=1;rotation=0;" vertex="1" parent="p6u7-twGRa0xvnqgj49X-50">
          <mxGeometry x="30" y="189.5" width="80" height="20" as="geometry" />
        </mxCell>
        <mxCell id="p6u7-twGRa0xvnqgj49X-54" style="edgeStyle=entityRelationEdgeStyle;rounded=0;orthogonalLoop=1;jettySize=auto;html=1;entryX=0;entryY=0.5;entryDx=0;entryDy=0;shape=link;" edge="1" parent="p6u7-twGRa0xvnqgj49X-50" source="p6u7-twGRa0xvnqgj49X-82" target="p6u7-twGRa0xvnqgj49X-53">
          <mxGeometry relative="1" as="geometry">
            <Array as="points" />
          </mxGeometry>
        </mxCell>
        <mxCell id="p6u7-twGRa0xvnqgj49X-75" value="" style="edgeStyle=elbowEdgeStyle;elbow=vertical;html=1;rounded=1;curved=0;sourcePerimeterSpacing=0;targetPerimeterSpacing=0;startSize=6;endSize=6;" edge="1" parent="1" source="p6u7-twGRa0xvnqgj49X-73" target="p6u7-twGRa0xvnqgj49X-72">
          <mxGeometry relative="1" as="geometry" />
        </mxCell>
        <mxCell id="p6u7-twGRa0xvnqgj49X-83" value="" style="edgeStyle=entityRelationEdgeStyle;rounded=0;orthogonalLoop=1;jettySize=auto;html=1;entryX=0;entryY=0.5;entryDx=0;entryDy=0;shape=link;" edge="1" parent="1" source="p6u7-twGRa0xvnqgj49X-47" target="p6u7-twGRa0xvnqgj49X-82">
          <mxGeometry relative="1" as="geometry">
            <mxPoint x="-102" y="-9" as="sourcePoint" />
            <mxPoint x="370" y="-22" as="targetPoint" />
            <Array as="points">
              <mxPoint x="130" y="20" />
            </Array>
          </mxGeometry>
        </mxCell>
      </root>
    </mxGraphModel>
  </diagram>
</mxfile>
